# xmcd CD database file
#
# Track frame offsets:
#	150
#	12497
#	28424
#	41712
#	53023
#	69127
#	86136
#	93887
#	107105
#	114725
#	127590
#	142071
#	151362
#	166437
#
# Disc length: 2387 seconds
#
# Revision: 0
# Processed by: cddbd v1.5.1PL0 Copyright (c) Steve Scherf et al.
# Submitted via: CDex 1.51
#
DISCID=b909510e
DTITLE=Paul Judge - Person to Person
DYEAR=1998
DGENRE=Blues
TTITLE0=Wang Dang Doodle
TTITLE1=Checking up on you
TTITLE2=Home in the woods
TTITLE3=When you need somebody
TTITLE4=Gambler's blues
TTITLE5=Person to person
TTITLE6=Do nothing till you hear from me
TTITLE7=Cold still night
TTITLE8=Ain't asking for much
TTITLE9=Some things don't keep
TTITLE10=Understanding man
TTITLE11=Naima
TTITLE12=too late
TTITLE13=Mona
EXTD=YEAR: 1998
EXTT0=
EXTT1=
EXTT2=
EXTT3=
EXTT4=
EXTT5=
EXTT6=
EXTT7=
EXTT8=
EXTT9=
EXTT10=
EXTT11=
EXTT12=
EXTT13=
PLAYORDER=
